<?xml version="1.0" standalone="no"?>
<!DOCTYPE svg PUBLIC "-//W3C//DTD SVG 20010904//EN"
 "http://www.w3.org/TR/2001/REC-SVG-20010904/DTD/svg10.dtd">
<svg version="1.0" xmlns="http://www.w3.org/2000/svg"
 width="16.000000pt" height="16.000000pt" viewBox="0 0 16.000000 16.000000"
 preserveAspectRatio="xMidYMid meet">
<metadata>
Created by potrace 1.11, written by Peter Selinger 2001-2013
</metadata>
<g transform="translate(0.000000,16.000000) scale(0.022857,-0.022857)"
fill="#000000" stroke="none">
<path d="M235 683 c-93 -34 -157 -91 -203 -183 -24 -48 -27 -66 -27 -150 0
-85 3 -101 29 -153 36 -71 99 -130 174 -165 48 -22 71 -26 143 -26 74 0 94 4
144 29 76 37 140 101 172 173 38 83 38 204 1 284 -59 128 -165 199 -303 205
-59 3 -93 -1 -130 -14z m200 -26 c131 -35 228 -161 228 -295 0 -132 -33 -192
-160 -293 -7 -5 -13 -7 -13 -4 0 3 -10 0 -22 -7 -26 -15 -35 -16 -105 -22
-173 -14 -325 129 -330 308 -3 112 44 206 135 268 80 55 172 70 267 45z"/>
<path d="M122 455 c-9 -14 -10 -198 -1 -210 4 -5 38 -10 76 -10 l68 1 3 39 c2
22 8 42 13 46 8 4 42 5 81 0 4 -1 17 -19 28 -41 11 -22 24 -40 28 -41 40 -5
175 -2 178 3 3 4 -13 26 -36 49 -29 29 -46 40 -60 36 -11 -3 -18 -1 -14 4 3 5
13 9 23 9 10 0 30 9 45 21 34 27 34 63 0 86 -23 15 -55 17 -226 18 -129 1
-202 -3 -206 -10z m266 -67 c-6 -17 -110 -17 -116 0 -3 9 13 12 58 12 44 0 61
-3 58 -12z"/>
</g>
</svg>
